<svg width="84" height="24" viewBox="0 0 84 24" fill="none" xmlns="http://www.w3.org/2000/svg">
<path d="M14.3345 22.7184C18.3154 22.0151 21.6034 21.4331 21.6411 21.4252L21.7098 21.4105L17.9514 16.9402C15.8844 14.4815 14.1931 12.4602 14.1931 12.4485C14.1931 12.4265 18.074 1.73959 18.0958 1.70168C18.1031 1.68883 20.7441 6.24852 24.4978 12.7544C28.0119 18.8453 30.9094 23.8674 30.9363 23.9144L30.9852 24L19.0409 23.9984L7.09662 23.9969L14.3345 22.7184ZM60.1397 21.6372C58.3215 21.5207 57.264 20.4852 56.9838 18.5474C56.9093 18.0319 56.909 18.0186 56.9013 14.672L56.894 11.433H58.5034L58.5097 14.5659C58.5154 17.3895 58.519 17.7207 58.546 17.9193C58.6555 18.7254 58.8737 19.2675 59.245 19.6565C59.5422 19.968 59.8901 20.1504 60.3717 20.2472C60.5989 20.2927 61.2453 20.2927 61.4524 20.2472C61.9405 20.1398 62.332 19.9273 62.6771 19.5823C63.0705 19.1889 63.3616 18.631 63.5025 17.9999L63.55 17.7872L63.5552 14.6278L63.5606 11.4683H65.2036V21.4017H63.5775V20.6137C63.5775 20.0784 63.5717 19.8279 63.5591 19.8319C63.5491 19.8352 63.5074 19.8991 63.4664 19.9738C63.1862 20.4847 62.7194 20.9522 62.2079 21.2337C61.5948 21.5711 60.9798 21.691 60.1397 21.6372ZM78.5942 21.629C77.9524 21.5809 77.2766 21.3602 76.7243 21.0186C75.5601 20.2984 74.8712 19.1115 74.6696 17.4779C74.5996 16.9127 74.5913 16.1535 74.6496 15.673C74.7797 14.5998 75.2015 13.5461 75.802 12.7939C75.9559 12.6011 76.3053 12.2519 76.4981 12.098C77.0174 11.683 77.6251 11.3929 78.2744 11.2501C78.6512 11.1676 79.3147 11.1289 79.715 11.166C80.7205 11.2592 81.6421 11.7327 82.2685 12.4779C82.9048 13.235 83.2545 14.2927 83.2992 15.5954C83.3064 15.7996 83.308 16.1575 83.3031 16.391L83.2942 16.815L79.7724 16.8196L76.2506 16.824V16.9812C76.2506 17.4595 76.3669 18.0046 76.5679 18.4681C76.7413 18.8679 77.0397 19.3044 77.2843 19.5158C77.7854 19.9489 78.3988 20.2083 79.0698 20.2708C79.3186 20.2937 79.9528 20.2695 80.2364 20.2259C81.0454 20.1015 81.8145 19.7843 82.4357 19.3184C82.5088 19.2638 82.5788 19.2125 82.5911 19.2047C82.6092 19.1933 82.6136 19.3365 82.6131 19.9382L82.6124 20.686L82.446 20.7888C81.7434 21.2234 80.9384 21.5025 80.0861 21.6069C79.8318 21.6381 78.8983 21.652 78.5941 21.6292L78.5942 21.629ZM81.6591 15.3233C81.6591 14.522 81.3215 13.6317 80.8435 13.1733C80.5025 12.8463 80.0902 12.6462 79.6001 12.5703C79.3681 12.5345 78.8793 12.5482 78.6349 12.5977C78.1182 12.7021 77.6906 12.9293 77.3178 13.2976C76.9254 13.6855 76.6312 14.1564 76.4462 14.693C76.3795 14.886 76.3017 15.2028 76.2776 15.379L76.2662 15.4629H81.659V15.3233H81.6591ZM33.887 21.3798C33.891 21.3677 35.0871 18.226 36.5446 14.3982L39.1946 7.43856H40.8977L40.9683 7.61982C41.1842 8.17334 46.2735 21.3868 46.2735 21.3938C46.2735 21.3982 45.8659 21.4019 45.3677 21.4019L44.4618 21.4016L43.7283 19.4486L42.9948 17.4958H37.0879L37.0622 17.562C37.048 17.5985 36.7346 18.4772 36.3658 19.5148L35.695 21.4012L34.7872 21.4016C34.0687 21.4017 33.8809 21.3973 33.887 21.3798ZM42.4557 16.0054C42.4557 16.0021 41.9621 14.664 41.3588 13.0316C40.2301 9.97744 40.167 9.79374 40.0778 9.30334C40.036 9.07344 40.0147 9.06693 39.9899 9.27682C39.972 9.42667 39.8952 9.76234 39.836 9.94848C39.8066 10.0407 39.2983 11.4358 38.7063 13.0485C38.1146 14.6613 37.6303 15.9875 37.6303 15.996C37.6303 16.0041 38.7161 16.0109 40.043 16.0109C41.37 16.0109 42.4557 16.0085 42.4557 16.0054ZM46.8215 21.1476V20.8933L49.764 16.8481L52.7066 12.803L50.0424 12.7941L47.3783 12.7853L47.3736 12.1092L47.369 11.4332H55.0758V11.8899L52.1329 15.9568C50.5143 18.1936 49.1899 20.0277 49.1899 20.0322C49.1899 20.0368 50.4983 20.0407 52.0974 20.0407H55.005V21.4016H46.8215V21.1473V21.1476ZM68.4146 21.39C68.4081 21.3837 68.4028 19.1408 68.4028 16.4058V11.433H70.0113V12.4581C70.0113 13.022 70.0181 13.4833 70.0264 13.4833C70.0349 13.4833 70.0741 13.391 70.1135 13.2783C70.2942 12.7614 70.6079 12.2783 71.0118 11.8944C71.3757 11.5485 71.7918 11.3417 72.2825 11.2627C72.4203 11.2404 72.537 11.2361 72.8128 11.2435C73.159 11.2524 73.3399 11.2776 73.5507 11.3466L73.617 11.3683V13.0376L73.427 12.9426C73.0913 12.7747 72.7602 12.7081 72.3621 12.7288C72.1029 12.7423 71.9329 12.7757 71.7259 12.8533C71.3053 13.0086 70.9485 13.2999 70.7122 13.681C70.3626 14.2391 70.1131 14.9561 70.0396 15.6151C70.0264 15.7334 70.0186 16.6967 70.0155 18.5959L70.011 21.4017H69.2186C68.7829 21.4017 68.4212 21.3965 68.4146 21.39ZM0 21.3552C0 21.3489 1.7709 18.2748 3.93539 14.5238L7.87078 7.70361L12.4568 3.85478C14.9794 1.7378 17.0499 0.00334598 17.0582 9.18425e-05C17.0663 -0.00316229 17.0333 0.080469 16.9843 0.185578C16.9355 0.290849 14.6945 5.0977 12.0043 10.8673L7.11354 21.3576L3.55677 21.362C1.60071 21.3645 0 21.3614 0 21.355V21.3552Z" fill="#ED4503"/>
</svg>
