<svg width="64" height="74" viewBox="0 0 64 74" fill="none" xmlns="http://www.w3.org/2000/svg">
<path d="M0.195404 0V1.10075L3.99407 4.32592C8.54815 8.03825 9.14324 8.76283 9.14324 12.1144V74H35.8017C49.7908 74 63.8076 68.9772 63.8076 52.8822C63.8076 43.3794 57.1045 36.0534 47.8175 35.0082V34.8016C55.4487 32.5045 60.6719 26.9699 60.6719 18.6048C60.6719 5.1245 49.1711 0.00616667 38.0125 0.00616667L0.198488 0H0.195404ZM22.3214 11.2973H33.1871C40.5346 11.2973 42.8101 12.3056 45.0394 14.4207C46.7291 16.0272 47.503 18.2348 47.5091 20.8033C47.5091 23.1928 46.6859 25.3234 44.9469 26.9823C42.7731 29.0666 39.7854 30.0995 34.331 30.0995H22.3245V11.2973H22.3214ZM22.3214 41.3845H34.96C45.616 41.3845 50.6387 44.1009 50.6387 51.837C50.6387 61.5587 41.2191 62.7088 34.4327 62.7088H22.3183V41.3845H22.3214Z" fill="#ED4503"/>
</svg>
