<svg width="396" height="44" viewBox="0 0 396 44" fill="none" xmlns="http://www.w3.org/2000/svg">
<path d="M0 20.8417C0.22132 19.5897 0.387309 18.3277 0.668989 17.0807C4.29561 1.25259 23.9176 -5.37934 36.3819 5.01353C36.481 5.12043 36.5718 5.23473 36.6535 5.35543C35.562 7.25099 34.4605 9.16665 33.3488 11.0823C33.2259 11.2717 33.0933 11.4547 32.9515 11.6304C25.9095 5.05375 16.8907 6.60238 11.9714 11.5851C9.42292 14.1784 7.92132 17.6205 7.75425 21.2519C7.58718 24.8832 8.7664 28.4485 11.066 31.2647C15.0246 36.2525 24.9487 39.8123 33.1275 32.1848L36.7189 38.4447C34.2266 40.6367 31.2548 42.2141 28.0422 43.0503C25.0281 43.829 21.8847 43.9712 18.8126 43.4678C15.7404 42.9644 12.8069 41.8266 10.1992 40.1268C7.59151 38.427 5.36682 36.2026 3.66705 33.5955C1.96727 30.9884 0.829719 28.0558 0.326949 24.9847C0.21629 24.306 0.11066 23.6322 0 22.9484V20.8417Z" fill="#ED4503"/>
<path d="M290.401 44C289.234 43.5897 288.092 43.1112 286.981 42.567C285.59 41.8209 284.406 40.7421 283.534 39.4268C282.662 38.1116 282.129 36.6009 281.984 35.0297C281.838 33.4586 282.084 31.8759 282.7 30.423C283.316 28.9701 284.282 27.6923 285.512 26.7037C288.269 24.3757 291.548 23.5159 295.069 23.4657C297.906 23.4204 300.748 23.4657 303.58 23.4657C303.776 20.4489 301.613 17.9349 298.454 17.3365C295.089 16.7181 291.976 17.5879 288.928 18.9002C288.535 19.0712 288.148 19.2522 287.756 19.403C287.69 19.403 287.605 19.403 287.434 19.3779L284.567 14.4002C290.1 11.7454 295.633 9.90013 301.754 11.318C304.408 11.8967 306.789 13.353 308.512 15.4515C310.235 17.5499 311.2 20.168 311.251 22.8824C311.422 28.7199 311.341 34.5675 311.366 40.41C311.366 41.3754 311.366 42.3458 311.366 43.3916H303.811V40.0078C301.84 42.1598 299.556 43.1503 297.192 44H290.401ZM303.64 28.8456C300.854 28.8456 298.158 28.6948 295.492 28.906C294.027 29.0228 292.613 29.4958 291.372 30.2836C288.49 32.2094 288.772 36.0658 291.78 37.8256C293.671 38.9117 295.728 38.9569 297.79 38.5245C300.632 37.9312 302.971 36.5737 303.59 33.4965C303.882 32.0384 303.64 30.4797 303.64 28.8456V28.8456Z" fill="#ED4503"/>
<path d="M150.935 44C148.863 43.0547 146.624 42.3659 144.758 41.1139C141.905 39.2661 139.705 36.5682 138.47 33.4019C137.235 30.2356 137.028 26.7613 137.877 23.4707C139.572 16.884 145.739 11.67 152.665 10.9711C157.073 10.5127 161.487 11.7736 164.986 14.4905C168.486 17.2074 170.801 21.1703 171.447 25.5523C172.584 33.2049 167.142 41.2295 159.249 43.5475C158.812 43.6782 158.384 43.8441 157.952 43.9949L150.935 44ZM144.758 27.4629C144.683 32.8529 149.018 37.6345 154.059 37.725C155.375 37.7344 156.68 37.4825 157.898 36.984C159.116 36.4856 160.223 35.7504 161.155 34.8212C162.087 33.8919 162.826 32.7871 163.327 31.5706C163.829 30.3541 164.084 29.0502 164.078 27.7344C164.139 22.1483 159.843 17.3918 154.687 17.3315C149.275 17.2711 144.864 21.7963 144.758 27.4629Z" fill="#ED4503"/>
<path d="M329.967 44C327.187 43.2448 324.592 41.9233 322.347 40.1184C317.317 35.8747 315.164 29.0568 317 23.0634C318.947 16.6779 324.862 11.7303 331.275 10.9962C333.521 10.7127 335.802 10.884 337.98 11.4999C340.159 12.1158 342.191 13.1637 343.956 14.5812L340.53 20.4841C338.221 18.2365 335.591 17.06 332.447 17.3767C330.171 17.6201 328.072 18.7159 326.572 20.4438C324.849 22.3782 323.888 24.8729 323.868 27.4631C323.849 30.0534 324.772 32.5623 326.466 34.5222C329.364 37.7904 335.048 39.6558 340.641 34.6379L343.986 40.4301C341.934 42.2754 339.459 43.1653 336.944 43.9799L329.967 44Z" fill="#ED4503"/>
<path d="M395 38.3888C394.095 39.8972 393.224 41.4056 392.264 42.8436C392.126 43.0268 391.953 43.1798 391.754 43.2931C391.555 43.4065 391.335 43.4776 391.107 43.5022C389.397 43.5777 387.676 43.5777 385.966 43.5022C385.736 43.4799 385.514 43.4104 385.312 43.2979C385.11 43.1854 384.934 43.0324 384.794 42.8486C383.859 41.3704 382.988 39.8318 382.174 38.3234C382.085 38.1283 382.04 37.9166 382.04 37.7024C382.04 37.4883 382.085 37.2766 382.174 37.0815C383.014 35.5027 383.914 33.9541 384.86 32.4356C384.979 32.2784 385.13 32.1483 385.304 32.0539C385.477 31.9594 385.669 31.9027 385.866 31.8876C387.656 31.8323 389.447 31.8272 391.238 31.8876C391.448 31.9188 391.649 31.9929 391.829 32.1054C392.009 32.2179 392.164 32.3662 392.284 32.5412C393.235 33.9993 394.105 35.5128 395.005 37.0061L395 38.3888Z" fill="#ED4503"/>
<path d="M228.16 43.5324V1.15143H229.297C236.002 1.15143 242.712 1.15143 249.417 1.15143C253.074 1.15143 256.353 2.31792 258.808 5.12355C259.75 6.18565 260.457 7.43516 260.882 8.78987C261.306 10.1446 261.439 11.5738 261.271 12.9835C261.103 14.3932 260.639 15.7514 259.908 16.9687C259.178 18.1861 258.198 19.2351 257.032 20.0466C256.57 20.3785 256.092 20.6902 255.523 21.0522C256.459 21.6556 257.324 22.1584 258.129 22.7467C262.777 26.1406 264.401 31.7267 262.052 36.5887C260.04 40.7067 256.464 42.6223 252.118 43.276C250.845 43.4479 249.56 43.5269 248.275 43.5123C242.038 43.5123 235.801 43.5123 229.564 43.5123L228.16 43.5324ZM235.68 36.7496H236.837C240.861 36.7496 244.86 36.82 248.864 36.6793C250.111 36.5959 251.319 36.2111 252.385 35.558C253.187 35.1041 253.863 34.4571 254.351 33.6757C254.84 32.8944 255.125 32.0035 255.181 31.0839C255.238 30.1643 255.064 29.2452 254.674 28.41C254.285 27.5748 253.694 26.85 252.953 26.3015C251.656 25.2833 250.044 24.7498 248.396 24.7931H236.465C236.202 24.8127 235.94 24.8462 235.68 24.8936V36.7496ZM235.71 18.0254C239.91 18.0254 244.04 18.131 248.155 17.9852C250.7 17.8997 252.802 16.0494 253.185 13.998C253.748 11.1571 251.917 8.6532 248.793 8.01464C248.223 7.88603 247.642 7.81195 247.058 7.79341C243.291 7.79341 239.513 7.79341 235.685 7.79341L235.71 18.0254Z" fill="#ED4503"/>
<path d="M107.747 38.61V43.0195H100.202V0.784363H107.747V15.8985C108.497 15.1091 109.01 14.5007 109.593 13.9728C111.139 12.5577 112.987 11.514 114.998 10.921C117.008 10.3281 119.127 10.2016 121.193 10.5513C123.26 10.9009 125.219 11.7174 126.923 12.9385C128.626 14.1597 130.027 15.7533 131.021 17.598C134.643 24.1796 134.517 30.9473 130.584 37.3681C125.725 45.3123 114.608 46.0916 108.452 39.0826L107.999 38.5798L107.747 38.61ZM126.207 27.0003C125.704 25.2607 125.453 23.4103 124.698 21.8064C123.149 18.5986 120.438 16.9041 116.827 16.8991C113.215 16.8941 110.66 18.6036 108.995 21.7209C107.767 24.0087 107.581 26.4674 107.883 28.9864C108.648 35.4071 114.96 39.2184 120.569 36.4982C124.442 34.6278 125.815 31.1736 126.207 27.0003V27.0003Z" fill="#ED4503"/>
<path d="M349.448 1.14136H356.873V23.345C358.517 23.345 360.097 23.5562 361.581 23.2545C362.36 23.0986 363.145 22.1634 363.593 21.3891C365.388 18.4729 367.114 15.4963 368.754 12.5046C368.897 12.1724 369.144 11.8951 369.457 11.714C369.771 11.5329 370.134 11.4575 370.494 11.499C372.833 11.5543 375.172 11.499 377.737 11.499C377.491 11.9767 377.33 12.3387 377.133 12.6756C374.508 17.2309 371.897 21.7913 369.226 26.3165C368.97 26.652 368.828 27.0615 368.824 27.4839C368.819 27.9062 368.952 28.3187 369.201 28.6596C371.917 33.1848 374.533 37.8005 377.174 42.386C377.36 42.7128 377.516 43.0547 377.757 43.5324C375.001 43.5324 372.405 43.5324 369.81 43.4972C369.503 43.4972 369.111 43.0849 368.925 42.7631C366.978 39.4396 364.981 36.1362 363.175 32.7373C362.21 30.9121 360.957 30.0373 358.895 30.3037C358.243 30.3445 357.59 30.3445 356.938 30.3037V43.452H349.448V1.14136Z" fill="#ED4503"/>
<path d="M70.0275 43.0296H62.5378V39.6306C60.5297 41.8019 57.8389 43.2213 54.9124 43.653C51.6328 44.1558 48.4589 43.7435 45.5415 42.034C39.1484 38.2831 39.1987 29.3534 45.627 25.2807C48.0258 23.7921 50.8015 23.0225 53.6247 23.0634C56.1397 23.0634 58.6144 23.0634 61.1093 23.0634H62.3719C62.5177 19.8606 60.2391 17.3566 56.9646 16.8488C53.6901 16.341 50.6319 17.1957 47.6642 18.4829L46.2759 19.0762C45.3051 17.3968 44.3645 15.7627 43.2579 13.8471C45.5616 12.9923 47.6893 12.0621 49.8975 11.4135C54.0925 10.1716 58.368 9.79953 62.5026 11.5593C67.5024 13.6862 69.942 17.7287 70.0476 23.0483C70.1884 29.4791 70.0778 35.9149 70.0778 42.3458C70.0828 42.5368 70.0526 42.7379 70.0275 43.0296ZM62.4473 28.6294C59.1778 28.6294 55.9586 28.4936 52.7646 28.7048C51.6731 28.7752 50.491 29.5445 49.6108 30.2987C49.1434 30.6869 48.7677 31.1736 48.5106 31.724C48.2536 32.2744 48.1215 32.8749 48.1239 33.4823C48.1263 34.0897 48.2631 34.6891 48.5245 35.2375C48.7859 35.7858 49.1655 36.2696 49.6359 36.6541C52.2062 38.8764 55.1689 38.61 58.1165 37.6245C60.3749 36.8753 61.9845 35.3568 62.402 32.9786C62.6535 31.5557 62.4473 30.0573 62.4473 28.6294Z" fill="#ED4503"/>
<path d="M205.017 43.4771H197.774V42.1648C197.774 36.282 197.774 30.3993 197.774 24.5165C197.774 20.7958 195.682 17.9801 192.402 17.4773C189.324 16.9745 186.618 17.8745 184.757 20.4137C184.002 21.4863 183.574 22.7539 183.524 24.064C183.403 30.0976 183.469 36.1312 183.469 42.1648V43.4771H175.944V11.5644H183.419V15.275L183.675 15.4309C183.876 15.1745 184.057 14.9281 184.274 14.6717C188.298 10.3124 195.34 9.51296 200.168 12.9069C203.443 15.1996 205.007 18.498 205.073 22.3947C205.183 29.2126 205.103 36.0306 205.098 42.8486C205.084 43.0595 205.057 43.2695 205.017 43.4771Z" fill="#ED4503"/>
<path d="M276.373 43.4921H268.989V1.17651H276.373V43.4921Z" fill="#ED4503"/>
<path d="M83.2463 11.2074V16.0292C86.6013 13.1884 90.233 11.4588 94.5638 11.0917V17.6281C93.1906 17.8343 91.8325 17.9348 90.5398 18.2516C86.043 19.3276 83.3067 22.8422 83.2916 27.4629C83.2916 32.1792 83.2916 36.8904 83.2916 41.6016V42.9592H75.7466V11.2074H83.2463Z" fill="#ED4503"/>
</svg>
