<svg width="116" height="62" viewBox="0 0 116 62" fill="none" xmlns="http://www.w3.org/2000/svg">
<path d="M78.938 60.8301V55.4506L78.8256 55.5086C77.6152 56.0956 76.298 56.4298 74.9541 56.491C73.5596 56.6017 72.1735 56.1909 71.0645 55.3382C70.2686 54.7297 69.6758 53.8943 69.3644 52.9421C69.0254 51.8972 68.9864 50.7781 69.252 49.7122C69.4985 48.6175 70.1002 47.6532 70.9702 46.9572C71.7488 46.3197 72.6909 45.914 73.689 45.7863C75.4586 45.6007 77.2439 45.9358 78.8256 46.7506L78.938 46.8086V41.4073L78.6915 41.3493C77.1129 40.845 75.4567 40.6277 73.8014 40.7077C72.2897 40.744 70.7999 41.0847 69.4405 41.7082C68.0511 42.3327 66.8289 43.2767 65.8735 44.4632C64.4027 46.3131 63.585 48.5973 63.5476 50.9603C63.5102 53.3233 64.2553 55.6323 65.6669 57.5277C67.1024 59.3583 69.1034 60.6633 71.3509 61.189C73.7254 61.7683 76.2136 61.683 78.5429 60.9425L78.938 60.8301V60.8301ZM25.7919 60.8301V55.4506L25.6795 55.5086C24.4699 56.0977 23.1522 56.4321 21.808 56.491C20.4134 56.6017 19.0274 56.1909 17.9184 55.3382C17.1278 54.7246 16.5363 53.891 16.2182 52.9421C15.8789 51.8973 15.8399 50.7781 16.1059 49.7122C16.3524 48.6175 16.9541 47.6532 17.8241 46.9572C18.6026 46.3197 19.5448 45.914 20.5429 45.7863C22.3125 45.6007 24.0977 45.9358 25.6795 46.7506L25.7919 46.8086V41.4073L25.5454 41.3493C23.967 40.8438 22.3106 40.6265 20.6552 40.7077C19.1436 40.744 17.6719 41.0847 16.2944 41.7082C14.9106 42.3422 13.6905 43.2846 12.7274 44.4632C11.2606 46.3149 10.4455 48.5985 10.4081 50.9604C10.3707 53.3223 11.1133 55.6306 12.5207 57.5277C13.9381 59.3583 15.9572 60.6633 18.2047 61.189C20.5793 61.7679 23.0674 61.6827 25.3968 60.9425L25.7919 60.8301V60.8301ZM44.7651 56.375L44.747 61.0005L45.0696 61.0585C46.1462 61.247 47.2047 61.3811 48.2777 61.4753C49.2202 61.5515 50.1845 61.5696 51.127 61.5333C52.0333 61.4572 52.9214 61.2868 53.7878 61.0222C54.8064 60.7395 55.7307 60.2283 56.5427 59.5505C57.2605 58.927 57.826 58.1331 58.1486 57.2486C58.7323 55.737 58.7141 54.0948 58.1124 52.605C57.8126 51.8264 57.3184 51.1375 56.6769 50.604C56.0667 50.0503 55.3465 49.6315 54.5635 49.3751L51.069 48.0737C50.6544 47.8974 50.319 47.5749 50.1265 47.1675C50.0481 47.0008 50.0105 46.8179 50.0168 46.6338C50.0231 46.4498 50.0731 46.2699 50.1628 46.109C50.3399 45.8132 50.5943 45.5713 50.8986 45.4093C51.2938 45.2208 51.7106 45.1085 52.1456 45.0505C52.8815 44.9562 53.6355 44.9562 54.375 45.0867C55.245 45.181 56.0933 45.3332 56.9415 45.5398L57.13 45.5761V41.3095L56.7893 41.2333C55.9232 41.0351 55.0471 40.8839 54.1648 40.7802C53.019 40.6219 51.8574 40.6158 50.7101 40.7621C49.2626 40.8972 47.8852 41.4486 46.7444 42.3498C45.9744 42.9605 45.3864 43.7704 45.0442 44.6916C44.5547 46.0978 44.5547 47.6281 45.0442 49.0343C45.3089 49.7521 45.7258 50.3756 46.2731 50.8831C46.7444 51.3362 47.2736 51.7132 47.8609 52.0177C48.6149 52.4346 49.4269 52.7355 50.257 52.9602C50.5216 53.0545 50.8044 53.1306 51.069 53.2248L51.4859 53.3771L51.5983 53.4351C52.0077 53.5709 52.3817 53.7962 52.693 54.0948C52.9174 54.2934 53.086 54.547 53.1824 54.8307C53.2586 55.0837 53.2586 55.3535 53.1824 55.6065C53.0517 56.018 52.7673 56.3634 52.3885 56.5707C51.9716 56.7773 51.5185 56.9296 51.0472 56.9876C50.3664 57.0935 49.676 57.1251 48.9882 57.0818C47.6107 56.9819 46.2454 56.7537 44.9101 56.4003L44.7651 56.375ZM32.7954 61.1708H37.874V41.0448H32.7954V61.1708ZM91.5675 46.9898C92.6579 46.1166 94.049 45.7092 95.4382 45.8562C96.8275 46.0033 98.1024 46.6929 98.9859 47.7751C99.8693 48.8573 100.29 50.2445 100.156 51.635C100.022 53.0256 99.344 54.307 98.2701 55.2005L98.1759 55.2585C92.6804 59.4888 86.2424 51.4051 91.5675 46.9898ZM84.2051 51.1079C84.2288 52.6815 84.6024 54.2301 85.2988 55.6414C85.9952 57.0527 86.9969 58.2914 88.2313 59.2676C89.4657 60.2438 90.9019 60.9331 92.4357 61.2855C93.9695 61.6379 95.5625 61.6445 97.0992 61.305C106.426 59.5287 108.634 47.1638 100.478 42.2737C93.4525 37.931 84.3719 42.8573 84.2015 51.1115L84.2051 51.1079ZM110.979 24.8447C111.11 28.0529 115.87 28.0529 116 24.8447V19.2767C115.87 16.0686 111.11 16.0686 110.979 19.2767V24.8447V24.8447ZM97.2334 24.8447C97.4617 27.9586 102.029 27.9586 102.254 24.8447V12.3457C102.066 9.19198 97.44 9.19198 97.2334 12.3457V24.8447ZM83.2808 29.8871C83.5273 33.001 88.0766 33.001 88.3014 29.8871V2.8301C88.1709 -0.37802 83.4294 -0.37802 83.2808 2.8301V29.8871ZM69.5746 24.8447C69.7631 27.9985 74.3886 27.9985 74.5952 24.8447V12.3457C74.443 9.1376 69.7051 9.1376 69.5746 12.3457V24.8447ZM55.5459 24.8447C55.8467 27.8861 60.2838 27.8861 60.5665 24.8447V19.2767C60.436 16.0686 55.6945 16.0686 55.5459 19.2767V24.8447V24.8447ZM41.6875 24.8447C41.818 28.0529 46.5595 28.0529 46.7081 24.8447V12.3457C46.5559 9.1376 41.818 9.1376 41.6875 12.3457V24.8447ZM27.7349 29.8871C27.8654 33.0952 32.6069 33.0952 32.7555 29.8871V2.8301C32.6033 -0.37802 27.8654 -0.37802 27.7349 2.8301V29.8871ZM13.8946 24.8447C14.1774 27.9224 18.6542 27.9224 18.9152 24.8447V12.3457C18.7847 9.1376 14.0433 9.1376 13.9128 12.3457V24.8447H13.8946ZM0 24.8447C0.228375 27.9586 4.77775 27.9586 5.02062 24.8447V19.2767C4.89012 16.0686 0.1305 16.0686 0 19.2767V24.8447Z" fill="#ED4503"/>
</svg>
