<svg width="34" height="28" viewBox="0 0 34 28" fill="none" xmlns="http://www.w3.org/2000/svg">
<path d="M33.5 18.125C33.5 23.3 29.3 27.5 24.125 27.5H9.875C4.7 27.5 0.5 23.3 0.5 18.125C0.5 14.915 2.12 12.08 4.565 10.4C5.87 4.73 10.94 0.5 17 0.5C23.06 0.5 28.13 4.73 29.435 10.4C30.6911 11.2586 31.7181 12.4113 32.4267 13.7578C33.1352 15.1042 33.5037 16.6035 33.5 18.125ZM23.945 21.5C25.91 21.5 27.5 19.91 27.5 17.945C27.5 16.025 26 14.45 24.08 14.375L24.125 13.625C24.1238 12.1769 23.6818 10.7636 22.8578 9.57284C22.0337 8.38212 20.8667 7.47048 19.5119 6.95918C18.1571 6.44788 16.6788 6.36115 15.2735 6.71052C13.8682 7.05989 12.6026 7.8288 11.645 8.915C13.895 9.35 15.845 10.58 17.21 12.29L13.25 16.25C12.62 15.155 11.435 14.375 10.07 14.375C8.09 14.375 6.5 15.965 6.5 17.945C6.5 19.85 8 21.395 9.875 21.5H23.945Z" fill="#ED4503"/>
</svg>
