<svg width="520" height="97" viewBox="0 0 520 97" fill="none" xmlns="http://www.w3.org/2000/svg">
<path d="M499.39 75.36V64.28H495.56C491.4 64.28 490.42 63.66 490.42 60.76V30.33H499.42V20H490.42V5H475V20H467.34V30.33H475V60C475 71.49 477.74 75.63 490.54 75.63C492.18 75.63 495.14 75.42 499.41 75.32" fill="#ED4503"/>
<path d="M410.91 74.94H426.45V42.34C426.45 35.09 431.16 30.75 438.38 30.75C445.05 30.75 447.38 34.27 447.38 41.75V74.94H462.92V37.47C462.92 24.84 456.57 18.53 443.77 18.53C436.43 18.53 430.53 21.22 426.15 26.53V20H410.91V74.94Z" fill="#ED4503"/>
<path d="M401.38 0.52002H385.84V13.87H401.38V0.52002Z" fill="#ED4503"/>
<path d="M401.38 19.98H385.84V74.94H401.38V19.98Z" fill="#ED4503"/>
<path d="M336.71 47.41C336.71 36.41 341.71 30.41 350.39 30.41C359.07 30.41 363.96 36.41 363.96 47.41C363.96 58.41 359 64.49 350.38 64.49C341.76 64.49 336.7 58.38 336.7 47.41H336.71ZM320.94 47.41C320.94 65.73 332.1 76.8 350.38 76.8C368.66 76.8 379.82 65.73 379.82 47.41C379.82 29.09 368.66 18 350.38 18C332.1 18 320.94 29.07 320.94 47.4" fill="#ED4503"/>
<path d="M300.49 47.82C300.49 58.07 295.57 64.07 287.9 64.07C279.69 64.07 274.9 58.27 274.9 47.82C274.9 36.54 279.39 30.74 287.6 30.74C295.81 30.74 300.51 36.64 300.51 47.82H300.49ZM259.77 97H274.87V68.11C278.7 73.8 284.61 76.8 292.05 76.8C305.62 76.8 315.91 65.31 315.91 47.2C315.91 29.6 305.91 18.11 291.83 18.11C284.28 18.11 279.03 21.01 274.54 27.43V20H259.77V97Z" fill="#ED4503"/>
<path d="M228.22 74.94H243.43V30.33H253.06V20H243.32V16.15C243.32 12.63 244.74 12.01 249.01 12.01H253.06V0.31C250.33 0.1 247.93 0 245.63 0C233.7 0 228.23 4.56 228.23 14.91V20H219.91V30.33H228.23L228.22 74.94Z" fill="#ED4503"/>
<path d="M175.81 47.41C175.81 36.41 180.81 30.41 189.49 30.41C198.17 30.41 203.06 36.41 203.06 47.41C203.06 58.41 198.14 64.49 189.49 64.49C180.84 64.49 175.81 58.38 175.81 47.41ZM160.05 47.41C160.05 65.73 171.21 76.8 189.49 76.8C207.77 76.8 218.93 65.73 218.93 47.41C218.93 29.09 207.76 18 189.48 18C171.2 18 160 29.09 160 47.41" fill="#ED4503"/>
<path d="M113.38 47.41C113.38 36.41 118.38 30.41 127.06 30.41C135.74 30.41 140.63 36.41 140.63 47.41C140.63 58.41 135.71 64.49 127.06 64.49C118.41 64.49 113.38 58.38 113.38 47.41ZM97.62 47.41C97.62 65.73 108.78 76.8 127.06 76.8C145.34 76.8 156.5 65.73 156.5 47.41C156.5 29.09 145.34 18 127.06 18C108.78 18 97.62 29.09 97.62 47.41" fill="#ED4503"/>
<path d="M62.38 74.94H77.92V45.85C77.92 37.57 82.3 33.43 90.72 33.43H95.86V18.53C95.0965 18.4449 94.328 18.4115 93.56 18.43C86.12 18.43 80.86 21.84 76.81 29.43V20H62.38V74.94Z" fill="#ED4503"/>
<path d="M40.71 47.82C40.71 58.07 35.79 64.07 28.12 64.07C19.91 64.07 15.12 58.27 15.12 47.82C15.12 36.54 19.61 30.74 27.82 30.74C36.03 30.74 40.73 36.64 40.73 47.82H40.71ZM0 97H15.1V68.11C18.93 73.8 24.84 76.8 32.28 76.8C45.85 76.8 56.14 65.31 56.14 47.2C56.14 29.6 46.14 18.11 32.06 18.11C24.51 18.11 19.26 21.01 14.77 27.43V20H0V97Z" fill="#ED4503"/>
<path d="M519.18 70.4C519.214 71.6102 518.885 72.8028 518.236 73.8246C517.587 74.8465 516.647 75.6509 515.537 76.1344C514.427 76.618 513.198 76.7586 512.007 76.5382C510.817 76.3178 509.72 75.7465 508.856 74.8977C507.993 74.0488 507.404 72.9613 507.163 71.7747C506.923 70.5882 507.043 69.3569 507.508 68.239C507.972 67.1212 508.761 66.1679 509.772 65.5016C510.782 64.8353 511.969 64.4865 513.18 64.5C513.962 64.4907 514.738 64.6363 515.464 64.9283C516.189 65.2203 516.85 65.6529 517.408 66.2013C517.966 66.7497 518.409 67.403 518.713 68.1236C519.018 68.8442 519.176 69.6179 519.18 70.4ZM508.56 70.4C508.54 71.016 508.644 71.6298 508.867 72.2043C509.09 72.7789 509.428 73.3024 509.858 73.7433C510.289 74.1843 510.804 74.5335 511.373 74.7701C511.943 75.0067 512.554 75.1257 513.17 75.12C513.776 75.1177 514.375 74.9937 514.931 74.7554C515.488 74.5171 515.991 74.1694 516.411 73.7329C516.831 73.2963 517.158 72.7799 517.375 72.2142C517.591 71.6486 517.691 71.0452 517.67 70.44C517.699 69.8239 517.602 69.2083 517.387 68.6305C517.171 68.0527 516.84 67.5247 516.414 67.0785C515.988 66.6322 515.476 66.277 514.909 66.0343C514.342 65.7916 513.732 65.6665 513.115 65.6665C512.498 65.6665 511.888 65.7916 511.321 66.0343C510.754 66.277 510.242 66.6322 509.816 67.0785C509.39 67.5247 509.059 68.0527 508.843 68.6305C508.628 69.2083 508.531 69.8239 508.56 70.44V70.4ZM512.2 73.5H510.83V67.6C511.579 67.4677 512.339 67.4075 513.1 67.42C513.811 67.3617 514.523 67.5111 515.15 67.85C515.338 68.0092 515.488 68.2087 515.588 68.4338C515.689 68.6588 515.737 68.9036 515.73 69.15C515.705 69.4806 515.572 69.7939 515.352 70.0415C515.131 70.2891 514.836 70.4572 514.51 70.52V70.59C514.798 70.7078 515.049 70.9008 515.238 71.1488C515.426 71.3968 515.544 71.6907 515.58 72C515.632 72.5205 515.774 73.0281 516 73.5H514.52C514.291 73.0466 514.133 72.5611 514.05 72.06C513.94 71.41 513.58 71.12 512.83 71.12H512.18L512.2 73.5ZM512.2 70.15H512.85C513.61 70.15 514.22 69.9 514.22 69.29C514.22 68.68 513.82 68.39 512.96 68.39C512.705 68.3835 512.45 68.407 512.2 68.46V70.15Z" fill="#ED4503"/>
</svg>
