<svg width="452" height="87" viewBox="0 0 452 87" fill="none" xmlns="http://www.w3.org/2000/svg">
<path d="M277.101 53.0701C277.381 57.8601 279.761 61.0701 283.691 62.2701C285.633 62.9349 287.734 62.9813 289.704 62.4028C291.674 61.8244 293.416 60.6496 294.691 59.0401C295.292 58.386 296.108 57.9705 296.991 57.8701C298.991 57.7001 300.991 57.8101 303.351 57.8101C302.62 60.0544 301.394 62.1057 299.763 63.8124C298.133 65.5191 296.139 66.8375 293.931 67.6701C285.781 70.8601 276.561 68.1201 272.191 61.3101C267.661 54.2501 268.681 42.9501 274.371 37.2501C279.371 32.2501 288.311 30.8401 295.171 34.0101C301.631 37.0101 305.171 43.5201 304.601 51.1401C304.491 52.7001 303.891 53.1401 302.391 53.1401C294.871 53.0801 287.391 53.1401 279.831 53.1401L277.101 53.0701ZM296.701 47.9601C296.761 42.1001 292.191 38.1301 286.091 38.5601C280.951 38.9201 276.771 43.4701 277.461 47.9601H296.701Z" fill="#ED4503"/>
<path d="M157.171 53.1401H130.321C130.215 55.0475 130.719 56.9389 131.76 58.5408C132.801 60.1426 134.325 61.3716 136.111 62.0501C139.931 63.5601 144.701 62.8501 146.911 59.8901C147.429 59.1112 148.162 58.4986 149.021 58.1261C149.879 57.7536 150.827 57.6369 151.751 57.7901C153.171 57.9001 154.611 57.7901 156.061 57.7901C155.061 65.0601 145.581 70.1801 136.451 68.5801C126.321 66.7901 120.571 57.1701 122.891 45.8801C124.961 35.8801 134.481 30.3501 145.201 32.8801C147.329 33.404 149.331 34.3474 151.089 35.6549C152.848 36.9624 154.328 38.6078 155.443 40.4946C156.558 42.3815 157.285 44.4718 157.582 46.6432C157.878 48.8146 157.738 51.0234 157.171 53.1401V53.1401ZM149.761 47.9901C149.911 46.2094 149.492 44.427 148.562 42.9007C147.633 41.3744 146.242 40.1835 144.591 39.5001C140.701 37.8101 136.921 38.0901 133.591 40.8801C132.545 41.7494 131.7 42.8353 131.115 44.0629C130.53 45.2904 130.218 46.6303 130.201 47.9901H149.761Z" fill="#ED4503"/>
<path d="M88.1706 56.4501C90.4806 56.4501 92.5506 56.3601 94.6106 56.5101C94.9547 56.5733 95.2783 56.7193 95.5535 56.9353C95.8287 57.1513 96.0474 57.4309 96.1906 57.7501C97.5206 64.1301 107.441 63.9501 110.471 60.3401C111.091 59.6637 111.55 58.8562 111.815 57.9776C112.08 57.0991 112.143 56.1721 112 55.2658C111.856 54.3594 111.511 53.4971 110.988 52.743C110.465 51.9888 109.779 51.3623 108.981 50.9101C106.946 49.9903 104.83 49.2606 102.661 48.7301C100.151 47.9401 97.5306 47.4201 95.1106 46.4301C93.4107 45.7246 91.9043 44.6225 90.7175 43.2157C89.5306 41.809 88.6978 40.1386 88.2886 38.3442C87.8794 36.5497 87.9057 34.6834 88.3653 32.9012C88.825 31.119 89.7046 29.4728 90.9306 28.1001C96.3106 21.9401 109.291 21.3701 115.241 27.0301C117.321 29.0301 118.361 31.4301 118.561 35.1001C116.201 35.1001 113.851 35.1601 111.501 35.0401C111.091 35.0401 110.571 34.3201 110.351 33.8201C109.854 32.7075 109.116 31.7197 108.19 30.9285C107.264 30.1373 106.173 29.5627 104.996 29.2466C103.82 28.9304 102.588 28.8807 101.39 29.101C100.191 29.3213 99.0576 29.8061 98.0706 30.5201C94.8106 32.8701 94.7306 38.1801 98.1506 40.3701C100.092 41.4663 102.161 42.3194 104.311 42.9101C106.311 43.5601 108.311 43.9101 110.311 44.4601C115.051 45.7701 118.561 48.3301 119.311 53.5601C120.101 59.0001 117.881 63.9301 113.031 66.4801C106.271 70.0201 99.4206 69.6601 92.9206 65.7301C89.7106 63.7801 88.2006 60.6601 88.1706 56.4501Z" fill="#ED4503"/>
<path d="M193.981 68.1901H187.161C187.161 67.3501 187.041 66.5101 187.041 65.6701C187.041 59.7701 187.121 53.8601 187.041 47.9601C186.961 42.0601 183.251 38.4601 177.521 38.7101C172.371 38.9301 169.191 42.3501 169.081 48.0901C168.971 53.8301 169.081 59.5801 169.081 65.3201V68.1301H161.831V33.1301H168.831C168.931 34.5801 169.041 36.0301 169.181 37.9901C170.464 36.1678 172.191 34.7028 174.198 33.7334C176.205 32.7641 178.425 32.3224 180.651 32.4501C187.491 32.5701 193.191 36.5801 193.761 43.3201C194.461 51.4501 193.981 59.7801 193.981 68.1901Z" fill="#ED4503"/>
<path d="M265.771 68.1901H258.471V64.5501C258.471 59.1201 258.551 53.7001 258.471 48.2701C258.351 42.0001 254.801 38.4901 249.001 38.7101C243.751 38.9101 240.571 42.3601 240.461 48.2601C240.351 54.0001 240.461 59.7501 240.461 65.4901V68.1901H233.351V33.1901H240.351C240.421 34.5701 240.491 36.0201 240.581 37.7701C240.91 37.5602 241.218 37.3191 241.501 37.0501C245.421 32.3201 250.561 31.5701 256.071 32.9901C261.361 34.3601 264.491 38.0901 265.411 43.4301C265.739 45.879 265.873 48.3501 265.811 50.8201C265.801 56.5301 265.771 62.2601 265.771 68.1901Z" fill="#ED4503"/>
<path d="M205.271 24.1201V32.9001H213.691V38.8301H205.251C205.251 45.8301 205.251 52.5501 205.251 59.2401C205.251 61.1601 206.601 62.0701 208.421 62.1501C210.241 62.2301 211.761 62.1501 213.641 62.1501V68.6201C210.031 68.2201 206.401 68.0701 202.881 67.3501C200.281 66.8101 198.811 64.6301 198.171 62.0701C197.886 60.9078 197.735 59.7167 197.721 58.5201C197.721 48.6301 197.721 38.7301 197.721 28.8401C197.745 28.4451 197.858 28.0606 198.05 27.7146C198.242 27.3687 198.508 27.0699 198.831 26.8401C200.771 25.8601 202.801 25.1501 205.271 24.1201Z" fill="#ED4503"/>
<path d="M315.781 17.0001V68.1801H308.531V65.4501C308.531 51.1701 308.531 36.8901 308.531 22.6101C308.531 20.6101 309.001 19.5201 310.951 18.9501C312.594 18.3852 314.206 17.7343 315.781 17.0001V17.0001Z" fill="#ED4503"/>
<path d="M366.191 45.9501C365.861 54.9501 362.721 62.2401 354.651 66.3501C346.801 70.3501 338.811 69.9701 331.421 65.0001C322.021 58.6701 319.231 44.2701 325.151 33.8301C330.661 24.1201 343.231 20.2201 353.791 25.1901C362.611 29.3401 365.921 36.9301 366.191 45.9501ZM363.191 46.1901C363.261 34.9501 356.421 26.8101 346.051 25.7801C335.681 24.7501 327.361 31.2801 325.481 41.7101C323.801 51.0301 327.481 59.9201 334.761 63.8801C346.081 70.0601 362.981 64.2601 363.191 46.1901Z" fill="#ED4503"/>
<path d="M410.431 51.0801C410.115 53.6608 410.585 56.2769 411.78 58.5857C412.976 60.8946 414.841 62.7887 417.131 64.0201C424.241 67.6401 435.181 65.2001 437.331 57.0201C437.511 56.3401 438.971 56.0201 440.081 55.8101C439.911 58.0591 439.136 60.2203 437.839 62.0652C436.542 63.91 434.77 65.3698 432.711 66.2901C425.171 70.0901 415.101 67.9301 410.551 61.6401C405.481 54.6401 406.051 43.3701 411.941 37.4701C416.741 32.6501 422.721 31.7601 429.051 33.2201C431.703 33.7378 434.153 35.0018 436.112 36.8635C438.071 38.7252 439.458 41.1074 440.111 43.7301C440.201 44.0301 440.291 44.3401 440.361 44.6501C441.521 50.4001 440.961 51.1101 435.271 51.1101H410.431V51.0801ZM437.791 49.2801C438.091 44.2801 436.601 40.2201 432.521 37.3501C430.092 35.7818 427.268 34.9352 424.377 34.9087C421.487 34.8821 418.648 35.6767 416.191 37.2001C411.941 40.0201 410.091 44.0801 410.191 49.2801H437.791Z" fill="#ED4503"/>
<path d="M226.501 68.2301H219.501V33.1101H226.501V68.2301Z" fill="#ED4503"/>
<path d="M401.721 67.4501H399.201C399.201 66.5301 399.201 65.6701 399.201 64.8201C399.201 58.7601 399.341 52.6901 399.141 46.6301C398.861 37.7401 392.071 32.8801 383.491 35.2601C381.414 35.7659 379.53 36.8656 378.068 38.4248C376.607 39.9841 375.631 41.9353 375.261 44.0401C374.837 46.231 374.633 48.4587 374.651 50.6901C374.571 56.1901 374.651 61.6901 374.651 67.4001L372.021 67.6101V33.2201H374.551V41.0201C375.191 40.1701 375.471 39.8701 375.661 39.5301C378.581 34.0901 384.201 31.5301 390.891 32.5301C396.791 33.4501 401.221 37.4501 401.681 43.6801C402.241 51.4501 401.911 59.2801 401.961 67.0901C401.981 67.1701 401.861 67.2401 401.721 67.4501Z" fill="#ED4503"/>
<path d="M451.911 35.3301C451.882 36.4197 451.431 37.4555 450.653 38.2187C449.875 38.9819 448.831 39.4127 447.741 39.4201C446.68 39.4201 445.662 38.9987 444.912 38.2485C444.162 37.4984 443.741 36.481 443.741 35.4201C443.722 34.8998 443.807 34.381 443.99 33.8939C444.174 33.4067 444.452 32.9608 444.81 32.5821C445.167 32.2035 445.596 31.8996 446.071 31.6881C446.547 31.4766 447.06 31.3617 447.581 31.3501C448.68 31.3146 449.749 31.7115 450.559 32.4557C451.368 33.1999 451.854 34.2319 451.911 35.3301V35.3301ZM447.811 32.2601C447.393 32.2533 446.978 32.3307 446.591 32.4878C446.204 32.6448 445.852 32.8782 445.557 33.1741C445.263 33.4699 445.03 33.8222 444.874 34.2098C444.719 34.5974 444.643 35.0124 444.651 35.4301C444.643 35.832 444.714 36.2315 444.86 36.6058C445.007 36.9801 445.226 37.3218 445.504 37.6116C445.783 37.9013 446.116 38.1333 446.484 38.2944C446.852 38.4554 447.249 38.5423 447.651 38.5501C448.076 38.5824 448.504 38.5278 448.908 38.3896C449.312 38.2514 449.684 38.0326 450.001 37.7463C450.318 37.46 450.573 37.1123 450.751 36.7243C450.93 36.3363 451.027 35.9161 451.038 35.4892C451.049 35.0624 450.973 34.6378 450.814 34.2412C450.656 33.8446 450.419 33.4844 450.117 33.1824C449.815 32.8804 449.455 32.6429 449.059 32.4843C448.662 32.3258 448.237 32.2495 447.811 32.2601V32.2601Z" fill="#ED4503"/>
<path d="M446.371 36.4501V33.6901C449.201 33.0001 449.201 33.0001 449.161 36.9101L446.371 36.4501Z" fill="#ED4503"/>
<path d="M44.2188 86.4794V14.4367C44.7928 14.5091 45.36 14.6288 45.9143 14.7947C48.2755 15.7429 50.6305 16.7351 52.9792 17.7211C54.9448 18.5437 55.6293 19.8688 55.6167 22.117C55.4974 40.7054 55.5351 59.3001 55.579 77.8886C55.6293 78.4024 55.52 78.9192 55.266 79.3686C55.0121 79.8181 54.6258 80.1784 54.1598 80.4005C50.8817 82.3284 47.6601 84.3631 44.2188 86.4794Z" fill="#ED4503"/>
<path d="M40.9406 69.8503C37.3736 69.8503 33.9197 69.8503 30.472 69.8503C30.2083 69.8503 29.8441 69.4484 29.731 69.1596C29.6404 68.7197 29.6192 68.2684 29.6682 67.822V2.53637C29.6682 0.482849 29.6682 0.482849 31.6966 0.482849H40.9406V69.8503Z" fill="#ED4503"/>
<path d="M26.4467 14.4179V86.5172L24.0918 85.0665C21.4417 83.4337 18.7664 81.8512 16.1666 80.1431C15.8862 79.9358 15.6521 79.6724 15.4791 79.3696C15.3061 79.0669 15.1981 78.7315 15.1618 78.3847C15.1074 59.1264 15.1074 39.8681 15.1618 20.6099C15.1499 20.3234 15.1954 20.0375 15.2957 19.769C15.396 19.5004 15.549 19.2546 15.7458 19.0462C18.9259 16.7298 22.581 15.149 26.4467 14.4179V14.4179Z" fill="#ED4503"/>
<path d="M12.0092 78.1209C9.62916 76.5698 7.36213 75.3452 5.39025 73.7564C1.94888 70.9807 0.655219 67.0998 0.64266 62.8106C0.592421 51.331 0.592421 39.8493 0.64266 28.3655C0.672781 26.6118 0.934616 24.8697 1.42136 23.1846C3.39952 16.1009 7.46888 10.1664 12.0092 4.06238V78.1209Z" fill="#ED4503"/>
<path d="M58.7064 4.69037C63.8371 11.2654 68.6161 17.9535 69.8846 26.3999C69.9725 27.0954 70.0103 27.7964 69.9976 28.4974C69.9976 39.8346 69.9976 51.1677 69.9976 62.4966C69.9976 68.2113 67.8311 72.7014 62.7004 75.5588C61.4068 76.2872 60.1885 77.1036 58.7001 78.0016L58.7064 4.69037Z" fill="#ED4503"/>
</svg>
