<svg width="410" height="85" viewBox="0 0 410 85" fill="none" xmlns="http://www.w3.org/2000/svg">
<path d="M75.7793 0.132461C81.5946 0.257792 87.2852 1.10647 92.7652 3.13326C95.1841 4.02849 97.4995 5.12783 99.4653 6.85024C99.74 7.09016 100.022 7.32292 100.3 7.56642L100.193 7.71324C99.08 7.6273 97.9669 7.50555 96.8502 7.459C90.3712 7.20475 84.2062 8.64428 78.2018 10.954C71.8548 13.3926 65.9716 16.7156 60.3025 20.4434C60.2241 20.4971 60.1527 20.5651 60.0528 20.6475C60.9947 21.2133 61.8367 21.5105 62.9926 21.0056C68.9827 18.422 75.4677 17.1992 81.9835 17.4247C84.2554 17.4863 86.5113 17.8254 88.7015 18.4345C88.8157 18.4667 88.9227 18.5204 89.1546 18.6135C87.6526 19.1829 86.2576 19.6878 84.8734 20.2321C75.0372 24.1031 65.8789 29.1521 57.7873 36.0311C47.473 44.7971 39.9238 55.4646 35.8031 68.4633C35.3321 69.9494 34.9111 71.4534 34.59 72.9789C34.4687 73.5625 34.351 73.8419 33.6232 73.935C32.3281 74.0997 31.0544 74.4112 29.738 74.4076C24.6219 74.4076 19.9874 72.7461 15.6883 70.1106C9.49475 66.2969 4.89954 61.1153 2.44138 54.1612C1.80381 52.305 1.37423 50.3834 1.16057 48.4317C1.13917 48.2527 1.23906 48.0235 0.99646 47.9089V47.626C1.14987 47.3073 1.0357 46.9671 1.07138 46.6413V44.4462C1.0357 44.1167 1.14987 43.7766 0.99646 43.4579V43.1571C1.16771 41.9897 1.14987 40.8008 1.38534 39.6334C2.5798 33.6208 5.32008 28.0261 9.3342 23.4048C12.1126 20.1512 15.5084 17.4854 19.3238 15.5626C22.9751 13.7119 26.9515 12.5953 31.0295 12.2753C33.9365 12.056 36.8595 12.2003 39.7311 12.705C39.9686 12.7645 40.2175 12.7597 40.4526 12.6911C40.6876 12.6226 40.9003 12.4927 41.069 12.3147C45.097 8.31841 49.8777 5.45727 55.1258 3.40899C59.652 1.65657 64.4071 0.571039 69.2432 0.186174C70.7206 0.0667938 72.2035 0.0297342 73.685 0.0751662C74.3836 0.0494185 75.0831 0.0685558 75.7793 0.132461V0.132461Z" fill="#ED4503"/>
<path d="M401.886 18.6207C401.604 20.1247 401.326 21.6322 401.033 23.1362C400.998 23.3332 401.062 23.6376 400.723 23.6376C400.307 23.6531 399.89 23.6327 399.478 23.5767C399.339 23.5516 399.446 23.3153 399.478 23.1792C399.931 20.9769 400.391 18.7747 400.844 16.5724C400.887 16.3719 400.919 16.1606 401.176 16.1535C401.768 16.1535 402.361 16.1535 402.96 16.1535C403.317 16.1535 403.249 16.4399 403.274 16.6405C403.413 17.8687 403.538 19.1005 403.673 20.3288C403.664 20.6785 403.744 21.0248 403.905 21.335C404.672 19.9027 405.461 18.5276 406.124 17.106C406.481 16.3361 406.938 16.0102 407.762 16.1391C408.172 16.2072 408.6 16.0854 409.011 16.2322V16.3826C408.454 18.0728 408.247 19.8418 407.83 21.5642C407.705 22.0942 407.601 22.6385 407.505 23.1649C407.504 23.2378 407.487 23.3097 407.456 23.3757C407.425 23.4417 407.38 23.5004 407.325 23.5477C407.27 23.5951 407.205 23.6302 407.135 23.6506C407.065 23.671 406.992 23.6763 406.92 23.6662C405.807 23.6877 405.807 23.7092 406.053 22.6098C406.35 21.2801 406.649 19.9528 406.949 18.6279C406.984 18.567 407.006 18.4954 406.949 18.4452C406.891 18.3951 406.838 18.4452 406.788 18.4775C405.957 20.0459 405.086 21.6 404.291 23.1935C403.977 23.8417 403.484 23.6411 403.038 23.6376C402.592 23.634 402.682 23.1613 402.653 22.8927C402.464 21.4604 402.296 20.0495 402.146 18.6243C402.072 18.4094 401.979 18.4273 401.886 18.6207Z" fill="#ED4503"/>
<path d="M80.3745 85H77.2599C77.2481 84.9807 77.2403 84.9591 77.2371 84.9367C77.2339 84.9143 77.2354 84.8914 77.2414 84.8695C77.2475 84.8477 77.2579 84.8273 77.2721 84.8097C77.2864 84.7921 77.3041 84.7777 77.3241 84.7672C78.3062 84.547 79.3246 84.547 80.3067 84.7672C80.3464 84.7892 80.3758 84.8259 80.3885 84.8696C80.4012 84.9132 80.3962 84.9601 80.3745 85Z" fill="#7FCCEB"/>
<path d="M1.12844 44.346V46.7595C1.07849 46.806 1.03568 46.8025 1 46.7416V44.3603C1.03568 44.2994 1.07849 44.2958 1.12844 44.346Z" fill="#ED4503"/>
<path d="M73.5424 0.128913C73.5459 0.086016 73.5459 0.0428967 73.5424 0L75.7686 0C75.7633 0.044004 75.7633 0.0884895 75.7686 0.132494L73.5424 0.128913Z" fill="#BFE5F5"/>
<path d="M1.12844 44.346H1V43.4543C1.27471 43.7265 1.1106 44.0452 1.12844 44.346Z" fill="#7BCBEB"/>
<path d="M1 46.7416L1.12844 46.7595C1.10346 47.0531 1.28898 47.379 1 47.6368V46.7416Z" fill="#7ECCEB"/>
<path d="M80.3745 85C80.378 84.9607 80.378 84.9211 80.3745 84.8818C80.428 84.8153 80.4957 84.7616 80.5725 84.7248C80.6494 84.6879 80.7335 84.6688 80.8187 84.6688C80.9039 84.6688 80.988 84.6879 81.0648 84.7248C81.1417 84.7616 81.2094 84.8153 81.2629 84.8818C81.2664 84.9211 81.2664 84.9607 81.2629 85H80.3745Z" fill="#B9E3F4"/>
<path d="M77.2491 84.8675C77.2526 84.9116 77.2526 84.9559 77.2491 85H76.507C76.5035 84.9607 76.5035 84.9211 76.507 84.8818C76.55 84.8244 76.6054 84.7775 76.6691 84.7448C76.7328 84.7121 76.8031 84.6944 76.8746 84.693C76.9461 84.6916 77.017 84.7066 77.0819 84.7369C77.1468 84.7671 77.204 84.8118 77.2491 84.8675V84.8675Z" fill="#BEE5F5"/>
<path d="M77.2492 84.8675H76.5071C70.3203 84.5666 64.2556 83.029 58.6686 80.3448C58.1976 80.1192 57.7588 80.2302 57.2986 80.2875C53.9949 80.6993 50.7055 80.7745 47.4374 79.9294C44.2844 79.1054 41.4353 77.3859 39.2317 74.977C38.775 74.4972 38.825 74.2286 39.2103 73.7667C42.771 69.5355 46.8891 65.8106 51.4511 62.6945C58.9433 57.4807 67.1276 53.8246 76.1147 52.1237C85.2577 50.3658 94.6943 50.942 103.558 53.7996C106.665 54.7843 109.805 55.522 113.087 55.1925C116.854 54.813 119.923 53.266 121.624 49.6779C122.319 48.2735 122.55 46.6837 122.284 45.1387C122.019 43.5937 121.27 42.1736 120.147 41.0838C116.184 37.1841 111.439 34.9962 106.048 34.0831C99.2263 32.9444 92.4762 33.682 85.7832 35.2003C80.3828 36.4043 75.1262 38.1846 70.1031 40.5108C69.6036 40.7471 69.1148 41.0121 68.5833 41.227C69.7813 39.3251 71.2352 37.5984 72.9038 36.0956C79.2507 30.2802 86.8178 26.8998 95.0842 24.8909C100.802 23.4617 106.72 23.0113 112.587 23.5588C118.553 24.1389 124.186 25.7431 129.024 29.4816C133.862 33.2201 136.448 38.1975 137.194 44.1991C138.225 52.4925 133.862 58.6732 127.151 62.2004C123.737 63.9576 120.014 65.027 116.191 65.348C115.884 65.3802 115.645 65.4017 115.477 65.7347C112.42 71.6182 107.65 75.8006 101.966 79.002C96.1916 82.2408 89.7902 84.1948 83.1966 84.7314C82.558 84.7887 81.9158 84.8353 81.2772 84.889H80.3888L77.2492 84.8675Z" fill="#ED4503"/>
<path d="M187.641 55.4396C189.297 55.4396 190.956 55.4396 192.611 55.4396C192.947 55.4396 193.193 55.4575 193.128 55.9123C192.6 59.7689 195.073 61.3911 198.055 61.828C200.428 62.1861 202.783 62.1574 205.077 61.341C206.163 60.9797 207.127 60.3212 207.86 59.4395C209.287 57.7063 209.008 56.0627 207.125 54.8703C205.932 54.1621 204.622 53.6768 203.257 53.4379C199.554 52.6787 195.89 51.7871 192.436 50.1864C191.901 49.9358 191.366 49.6672 190.856 49.3736C187.042 47.225 185.444 43.6441 186.575 39.3828C188.037 33.8109 191.352 29.6571 196.628 27.3295C202.886 24.5758 209.383 24.3323 215.894 26.3841C220.978 27.992 223.604 32.2174 223.161 37.5458C223.122 38.04 223.051 38.5342 223.037 39.0283C223.022 39.5225 222.84 39.6478 222.362 39.6442C220.065 39.6192 217.763 39.6442 215.466 39.6228C213.91 39.6048 212.612 38.9854 212.012 37.5029C211.26 35.6193 209.818 34.7778 207.999 34.3731C205.919 33.8809 203.747 33.9414 201.698 34.5486C200.246 34.9926 199.065 35.8055 198.523 37.3166C198.113 38.4518 198.33 39.1787 199.29 39.9307C200.546 40.9119 202.019 41.4311 203.525 41.825C206.197 42.5197 208.901 43.0998 211.577 43.7873C213.306 44.2176 214.965 44.8966 216.501 45.8034C220.375 48.1238 221.802 51.5328 220.71 55.923C218.987 62.8593 214.727 67.4392 207.892 69.4338C202.003 71.1483 195.776 71.3331 189.796 69.9709C188.713 69.7163 187.667 69.3252 186.682 68.8071C183.446 67.1599 181.751 64.4886 181.469 60.8933C181.384 59.2322 181.526 57.5672 181.89 55.9445C181.972 55.5327 182.176 55.4396 182.554 55.4432C184.227 55.4504 185.936 55.4396 187.641 55.4396Z" fill="#ED4503"/>
<path d="M156.363 60.3526H157.237C164.582 60.3526 171.926 60.3526 179.268 60.3526C179.907 60.3526 180.11 60.4314 179.935 61.144C179.264 63.8834 178.644 66.6371 178.041 69.3801C177.937 69.8384 177.784 69.9781 177.327 69.9781C165.064 69.9638 152.801 69.9638 140.54 69.9781C139.98 69.9781 139.962 69.7847 140.066 69.3443C140.658 66.7875 141.238 64.2283 141.807 61.6668C141.904 61.3088 142.117 60.9936 142.413 60.7716C149.028 54.9156 155.64 49.0572 162.25 43.1965L170.573 35.8091C170.734 35.6658 170.887 35.519 171.176 35.254C170.745 35.2325 170.488 35.211 170.231 35.211H155.029C153.702 35.211 152.482 34.921 151.461 33.9935C150.312 32.9193 150.034 31.5943 150.291 30.1226C150.501 28.9803 150.823 27.8559 151.047 26.7171C151.147 26.2086 151.351 26.0511 151.879 26.0511C156.624 26.0762 161.372 26.0511 166.117 26.0511C172.842 26.0511 179.568 26.0511 186.293 26.0511C186.96 26.0511 187.049 26.2015 186.903 26.8246C186.25 29.5461 185.64 32.2747 185.033 35.0034C184.956 35.3638 184.755 35.6857 184.466 35.9129C175.226 43.8745 165.99 51.8432 156.759 59.819C156.563 59.9378 156.42 60.1295 156.363 60.3526Z" fill="#ED4503"/>
<path d="M261.261 56.4172C259.892 59.2416 258.051 61.8094 255.817 64.0087C251.407 68.27 246.084 70.3792 240.015 70.7373C236.537 70.9414 233.155 70.5976 229.972 69.0686C225.691 67.006 223.272 63.4358 222.876 58.8093C222.041 49.1408 224.542 40.3604 230.818 32.8871C234.721 28.2319 239.944 25.9115 245.934 25.2884C249.359 24.9303 252.752 25.0306 256.031 26.223C260.897 27.9884 263.612 31.5478 264.486 36.6076C264.618 37.3847 264.672 38.1797 264.768 38.9675C264.811 39.3255 264.682 39.4903 264.279 39.4903C260.743 39.4759 257.207 39.4759 253.673 39.4903C253.387 39.4903 253.212 39.4294 253.141 39.1322C252.281 35.34 248.738 34.477 245.649 34.7778C241.599 35.1359 238.966 37.5458 237.215 40.9978C235.114 45.0944 234.029 49.6397 234.054 54.2472C234.054 55.1154 234.174 55.9795 234.41 56.8147C235.192 59.5469 237.34 61.0867 240.319 61.2264C243.53 61.3768 246.316 60.4887 248.631 58.2256C249.256 57.6061 250.005 57.1262 250.827 56.8177C251.65 56.5091 252.528 56.3787 253.405 56.4351C255.992 56.4781 258.564 56.4172 261.261 56.4172Z" fill="#ED4503"/>
<path d="M299.714 69.9638C300.328 67.2781 300.92 64.6748 301.498 62.0858C305.137 46.0911 308.77 30.088 312.397 14.0766C312.547 13.4141 312.793 13.2207 313.467 13.2494C315.419 13.3389 317.392 13.0882 319.318 13.3568C322.173 13.7579 323.557 15.9028 322.915 18.7282C321.331 25.6799 319.749 32.6304 318.17 39.5798C315.913 49.4989 313.653 59.418 311.391 69.3371C311.316 69.6737 311.323 69.9996 310.802 69.996C307.153 69.9566 303.496 69.9638 299.714 69.9638Z" fill="#ED4503"/>
<path d="M391.636 26.0977L389.959 32.3535C389.688 33.3562 389.371 34.3481 389.146 35.3615C389.039 35.8556 388.835 35.9738 388.357 35.9738C385.446 35.9738 382.649 36.5002 380.152 38.0543C376.691 40.2028 374.747 43.4257 373.73 47.2537C372.349 52.3636 371.311 57.5595 370.162 62.7232C369.658 64.9696 369.164 67.216 368.681 69.4624C368.61 69.7955 368.507 69.9745 368.114 69.9745C364.504 69.9745 360.897 69.9745 357.29 69.9745C357.2 69.9628 357.111 69.9412 357.026 69.9101C357.547 67.6362 358.064 65.373 358.581 63.1063C359.819 57.7063 360.957 52.2813 362.32 46.9099C363.772 41.1804 366.548 36.1994 371.1 32.332C374.739 29.2417 379.014 27.5443 383.648 26.6742C386.281 26.1803 388.96 25.9869 391.636 26.0977Z" fill="#ED4503"/>
<path d="M395.257 17.5643H393.067C393.058 17.4978 393.058 17.4304 393.067 17.3638C393.274 16.1391 393.274 16.1391 394.526 16.1391C395.981 16.1391 397.437 16.1391 398.893 16.1391C399.11 16.1391 399.581 15.9744 399.471 16.4113C399.36 16.8482 399.642 17.4856 398.864 17.5536C398.814 17.5536 398.764 17.5536 398.714 17.5536C397.023 17.5966 397.027 17.6002 396.688 19.2402C396.42 20.5472 396.138 21.8507 395.857 23.1541C395.814 23.3583 395.835 23.6411 395.5 23.6304C395.061 23.6304 394.59 23.7593 394.198 23.5337C394.033 23.4442 394.169 23.1183 394.215 22.9035C394.572 21.1846 394.929 19.467 395.286 17.7506C395.285 17.6874 395.276 17.6247 395.257 17.5643V17.5643Z" fill="#ED4503"/>
<path d="M401.886 18.6207C401.886 18.4274 401.833 18.2268 402.068 18.1015C402.25 18.2483 402.175 18.4596 402.161 18.6207H401.886Z" fill="#82CEEC"/>
<path d="M406.785 18.4703L406.97 18.0549C407.04 18.1343 407.077 18.2384 407.071 18.3445C407.065 18.4506 407.017 18.5499 406.938 18.6207L406.785 18.4703Z" fill="#8FD3EE"/>
<path d="M359.88 37.1448C359.166 31.7412 356.312 28.0135 351.128 26.2158C348.56 25.3806 345.862 25.0167 343.165 25.1416C336.497 25.2956 330.789 27.6482 326.265 32.6615C323.114 36.1421 321.141 40.2745 319.764 44.722C318.273 49.5311 317.481 54.4262 318.359 59.4502C319.304 64.861 322.283 68.5529 327.663 70.0784C330.177 70.7391 332.783 70.9691 335.373 70.7588C341.795 70.4007 347.286 67.9621 351.785 63.3248C353.739 61.2982 355.362 58.9741 356.594 56.4387H348.602C348.356 56.4387 348.106 56.4387 347.86 56.4566C346.396 56.543 345.008 57.1395 343.936 58.1432C343.474 58.6264 342.981 59.0774 342.459 59.4932C340.229 61.0688 337.706 61.4126 335.098 61.1369C331.991 60.8038 330.228 59.0957 329.686 56.1236C329.463 54.6764 329.485 53.2015 329.754 51.762C329.843 51.1855 330.064 51.0459 330.607 51.0459C336.368 51.0459 342.13 51.0459 347.892 51.0459H357.682C358.039 51.0459 358.321 51.0673 358.453 50.5839C359.641 46.1937 360.479 41.7319 359.88 37.1448ZM348.395 42.9315C348.335 43.4543 348.142 43.6083 347.607 43.6047C343.183 43.5832 338.759 43.6047 334.335 43.6047H331.663C332.733 38.8063 336.144 35.4259 340.454 34.8315C341.726 34.6418 343.023 34.6916 344.278 34.9783C346.654 35.5441 348.092 37.1054 348.434 39.5332C348.569 40.6629 348.555 41.8053 348.395 42.9315Z" fill="#ED4503"/>
<path d="M303.439 32.3929C302.725 29.5747 300.784 27.8845 298.237 26.7995C294.99 25.4173 291.555 25.1272 287.569 25.1272C285.092 25.0726 282.62 25.3864 280.234 26.0583C274.479 27.6553 270.198 31.0107 267.794 36.5969C267.572 37.1125 267.505 37.3632 268.247 37.356C271.483 37.3202 274.722 37.3345 277.962 37.356C278.142 37.3755 278.324 37.3451 278.488 37.2681C278.652 37.1911 278.792 37.0704 278.893 36.9192C279.546 36.039 280.436 35.3644 281.458 34.9747C283.413 34.1726 285.454 34.126 287.523 34.3123C288.767 34.3698 289.984 34.6959 291.091 35.2684C292.364 35.9845 292.757 37.1268 292.197 38.4912C291.719 39.5659 290.872 40.4317 289.81 40.9298C288.026 41.8859 286.046 42.244 284.044 42.4338C280.277 42.7918 276.552 43.354 272.985 44.6826C270.184 45.7282 267.497 47.0173 265.535 49.3628C262.41 53.0941 261.254 57.5309 261.479 62.3006C261.643 65.6595 263.505 68.0086 266.566 69.3801C268.39 70.1509 270.331 70.6026 272.307 70.7158C275.686 70.9883 279.086 70.7809 282.407 70.0998C290.787 68.4061 296.621 63.7115 299.1 55.3071C300.852 49.37 302.019 43.2896 303.414 37.2629C303.812 35.6653 303.821 33.9946 303.439 32.3929V32.3929ZM290.099 48.4497C289.549 50.5767 289.303 52.7933 288.351 54.8058C286.21 59.3714 282.528 61.6095 277.89 61.8602C277.089 61.8635 276.289 61.794 275.5 61.6525C273.145 61.1189 272.05 59.5218 272.556 57.1692C273.156 54.3653 274.629 52.2956 277.516 51.4397C279.788 50.7558 282.154 50.4263 284.419 49.7854C286.174 49.2912 287.955 48.8865 289.657 48.2062C289.91 48.088 290.242 47.8982 290.099 48.4497Z" fill="#ED4503"/>
</svg>
